<svg width="379" height="158" viewBox="0 0 379 158" fill="none" xmlns="http://www.w3.org/2000/svg">
<path d="M377.401 147.051C374.558 105.808 365.32 27.5573 350.984 12.3475C333.063 -6.66482 329.869 117.929 305.049 145.241C280.229 172.552 265.34 22.0224 244.545 10.102C223.749 -1.81842 224.168 134.829 212.573 133.019C200.977 131.208 203.979 22.1478 184.813 2.9091C165.647 -16.3295 161.112 150.22 151.816 155.426C144.38 159.591 140.157 148.108 138.975 141.846C138.139 97.9112 132.609 10.0421 117.182 10.0421C97.8975 10.0421 93.1117 148.629 84.8576 145.241C68.7838 138.642 57.6597 41.0165 56.4353 28.5417C55.2109 16.0668 44.029 -12.8345 43.3652 13.536C42.8968 32.1433 52.8558 204.23 31.7349 123.499C14.8381 58.9139 0.011452 19.6639 1.46033 15.4225" stroke="#FFEE00" stroke-width="2.72445"/>
</svg>
