<svg width="298" height="422" viewBox="0 0 298 422" fill="none" xmlns="http://www.w3.org/2000/svg">
<g clip-path="url(#clip0_210_12)">
<path d="M119.104 161.169C119.104 161.169 126.948 156.097 149.195 156.954C171.442 157.811 178.325 159.981 178.325 159.981C178.325 159.981 183.852 164.618 149.25 165.174C114.649 165.731 120.065 160.538 119.099 161.174L119.104 161.169Z" fill="#F7F3C1"/>
<path d="M143.749 156.802C143.749 156.802 142.672 162.09 148.99 162.05C155.308 162.01 153.951 156.802 153.951 156.802H143.749Z" fill="#E1AA61"/>
<path d="M118.972 160.156L48.8623 377.801C48.8623 377.801 49.2089 369.596 147.87 368.912C246.532 368.227 250.344 377.801 250.344 377.801L179.266 158.963C179.266 158.963 184.235 163.433 149.664 164.178C115.094 164.923 118.967 160.161 118.967 160.161L118.972 160.156Z" fill="#73681C"/>
<path d="M116.425 162.772C116.425 162.772 116.298 138.827 141.861 133.244C141.861 133.244 140.616 119.594 146.85 119.847V0.000801086H151.09V119.594C151.09 119.594 156.36 124.153 154.146 132.685C154.146 132.685 174.658 134.109 181.575 161.468C181.575 161.468 164.642 157.402 149.531 158.159C149.531 158.159 146.883 158.197 145.165 158.17C139.895 158.093 126.232 157.906 116.431 162.767L116.425 162.772Z" fill="#FFA6A6"/>
<path d="M50.2441 376.961C50.2441 376.961 62.8191 366.48 148.31 368.075C233.802 369.67 250.607 372.745 249.809 376.961C249.012 381.178 192.548 386.416 152.197 386.874C111.847 387.332 43.954 383.342 50.2441 376.961Z" fill="#F6F1AF"/>
<path d="M114.842 349.631L131.757 379.085L171.2 385.817L154.305 356.022L114.842 349.631Z" fill="#B68310"/>
<path d="M173.524 321.136L154.305 356.023L114.841 349.632L136.369 316.263C136.369 316.263 133.515 320.339 139.103 321.567C144.696 322.795 152.688 319.06 152.688 319.06L173.529 321.136H173.524Z" fill="#FEDE56"/>
<path d="M182.078 353.101L173.14 321.111L154.305 356.023L170.771 385.788L182.078 353.101Z" fill="#F59E0F"/>
<path d="M145.408 362.138C145.408 362.138 156.533 360.378 154.72 368.504C154.72 368.504 152.062 370.489 147.722 366.844C143.382 363.2 145.403 362.138 145.403 362.138H145.408Z" fill="#F8AB18"/>
<path d="M145.681 371.597C145.681 371.597 146.545 367.331 138.168 364.043C129.791 360.755 129.109 364.083 129.109 364.083C129.109 364.083 129.144 369.467 135.692 371.838C142.24 374.209 145.65 372.9 145.686 371.597H145.681Z" fill="#F49513"/>
<path d="M143.811 340.875C143.811 340.875 146.898 348.589 135.081 348.709C123.264 348.83 127.346 342.735 127.346 342.735C127.346 342.735 130.054 338.875 135.768 338.86C141.482 338.845 143.811 340.875 143.811 340.875Z" fill="#F6A219"/>
<path d="M170.968 358.839C170.968 358.839 174.06 358.022 172.979 369.722C171.897 381.421 168.957 379.977 168.957 379.977C168.957 379.977 165.334 379.285 166.198 369.957C167.062 360.629 170.968 358.839 170.968 358.839Z" fill="#F4960B"/>
<path d="M164.965 357.758C164.965 357.758 163.662 362.62 162.096 361.207C160.529 359.793 161.156 356.48 161.156 356.48C161.156 356.48 162.141 352.28 163.268 353.778C164.395 355.277 164.97 357.758 164.97 357.758H164.965Z" fill="#DF9C14"/>
</g>
<defs>
<clipPath id="clip0_210_12">
<rect width="298" height="422" fill="white"/>
</clipPath>
</defs>
</svg>
