<svg width="3502" height="4954" viewBox="0 0 3502 4954" fill="none" xmlns="http://www.w3.org/2000/svg">
<g clip-path="url(#clip0_19_101)">
<path d="M1402.91 1913.89C1402.91 1913.89 1401.55 1656.75 1674.64 1596.79C1674.64 1596.79 1661.34 1450.21 1727.94 1452.91V165.881H1773.24V1450.21C1773.24 1450.21 1829.54 1499.16 1805.89 1590.78C1805.89 1590.78 2025.03 1606.08 2098.92 1899.89C2098.92 1899.89 1918.02 1856.23 1756.59 1864.35C1756.59 1864.35 1728.29 1864.76 1709.94 1864.47C1653.64 1863.64 1507.68 1861.64 1402.97 1913.84L1402.91 1913.89Z" fill="#D27C7A"/>
<path d="M1399.67 1915.48C1399.67 1915.48 1491.86 1855.93 1753.29 1865.99C2014.73 1876.06 2095.62 1901.54 2095.62 1901.54C2095.62 1901.54 2160.57 1955.97 1753.94 1962.5C1347.31 1969.03 1410.97 1908.07 1399.61 1915.54L1399.67 1915.48Z" fill="black"/>
<path d="M1689.29 1864.23C1689.29 1864.23 1676.64 1926.31 1750.88 1925.84C1825.12 1925.37 1809.18 1864.23 1809.18 1864.23H1689.29Z" fill="#352918"/>
</g>
<defs>
<clipPath id="clip0_19_101">
<rect width="3502" height="4954" fill="white"/>
</clipPath>
</defs>
</svg>
