<svg width="4405" height="6230" viewBox="0 0 4405 6230" fill="none" xmlns="http://www.w3.org/2000/svg">
<g clip-path="url(#clip0_19_106)">
<path d="M1764.65 2406.85C1764.65 2406.85 1762.95 2083.47 2106.45 2008.07C2106.45 2008.07 2089.73 1823.73 2173.49 1827.14V208.605H2230.47V1823.73C2230.47 1823.73 2301.29 1885.3 2271.54 2000.52C2271.54 2000.52 2547.19 2019.76 2640.13 2389.24C2640.13 2389.24 2412.58 2334.33 2209.53 2344.55C2209.53 2344.55 2173.94 2345.06 2150.85 2344.69C2080.03 2343.66 1896.44 2341.14 1764.72 2406.78L1764.65 2406.85Z" fill="#D27C7A"/>
<path d="M1760.58 2408.85C1760.58 2408.85 1876.54 2333.97 2205.39 2346.62C2534.24 2359.27 2635.98 2391.32 2635.98 2391.32C2635.98 2391.32 2717.68 2459.77 2206.2 2467.98C1694.72 2476.19 1774.79 2399.53 1760.51 2408.93L1760.58 2408.85Z" fill="#F7F3C1"/>
<path d="M2124.88 2344.4C2124.88 2344.4 2108.97 2422.47 2202.35 2421.88C2295.74 2421.28 2275.68 2344.4 2275.68 2344.4H2124.88Z" fill="#E1AA61"/>
<path d="M1760.58 2408.85L742.652 5608.7C742.652 5608.7 747.684 5488.08 2180.15 5478.01C3612.62 5467.95 3667.97 5608.7 3667.97 5608.7L2635.98 2391.32C2635.98 2391.32 2708.13 2457.03 2206.2 2467.98C1704.27 2478.93 1760.51 2408.93 1760.51 2408.93L1760.58 2408.85Z" fill="#73681C"/>
<path d="M742.652 5608.62C742.652 5608.62 926.983 5454.48 2180.15 5477.94C3433.32 5501.4 3679.66 5546.61 3667.97 5608.62C3656.28 5670.63 2828.6 5747.67 2237.13 5754.4C1645.66 5761.14 650.449 5702.45 742.652 5608.62Z" fill="#F6F1AF"/>
<path d="M2508.56 4608.58C2508.56 4608.58 2802.85 4525.04 2842.89 4672.3C2882.92 4819.56 2984.3 5601.81 2786.2 5680.25L1476.35 5596.04L1243.33 5536.03C1243.33 5536.03 1221.65 5502.5 1315.25 5447.67L1601.41 4605.55C1601.41 4605.55 1708.56 4604.36 1971.11 4643.21C2233.65 4682.06 2508.56 4608.58 2508.56 4608.58Z" fill="#DFBC7A"/>
<path d="M3258.31 4613.98C3258.31 4613.98 3394.77 4967.34 3382.71 5079.67C3370.57 5192 3412.75 5388.91 3163.37 5551.57C3163.37 5551.57 2823.72 5676.03 2762.89 5681.51C2762.89 5681.51 2930.57 5539.8 2874.26 5106.75L2817.95 4673.7L3258.39 4614.06L3258.31 4613.98Z" fill="#C56B21"/>
<path d="M2962.84 4556.78C2962.84 4556.78 3232.93 4551.68 3259.87 4643.51L2820.46 4714.18C2820.46 4714.18 2818.1 4569.29 2654.11 4597.33C2490.13 4625.38 2100.53 4726.91 1961.41 4661.34C1822.22 4595.78 1596.67 4605.84 1596.67 4605.84L2962.84 4556.86V4556.78Z" fill="#E09065"/>
</g>
<defs>
<clipPath id="clip0_19_106">
<rect width="4405" height="6230" fill="white"/>
</clipPath>
</defs>
</svg>
