<svg width="3949" height="5585" viewBox="0 0 3949 5585" fill="none" xmlns="http://www.w3.org/2000/svg">
<g clip-path="url(#clip0_18_36)">
<path d="M1581.97 2157.67C1581.97 2157.67 1580.45 1867.77 1888.39 1800.17C1888.39 1800.17 1873.4 1634.92 1948.5 1637.97V187.01H1999.58V1634.92C1999.58 1634.92 2063.06 1690.11 2036.39 1793.4C2036.39 1793.4 2283.5 1810.65 2366.83 2141.88C2366.83 2141.88 2162.83 2092.66 1980.8 2101.81C1980.8 2101.81 1948.89 2102.28 1928.2 2101.95C1864.71 2101.02 1700.12 2098.76 1582.04 2157.6L1581.97 2157.67Z" fill="#D27C7A"/>
<path d="M1578.33 2159.46C1578.33 2159.46 1682.28 2092.33 1977.09 2103.67C2271.9 2115.01 2363.11 2143.74 2363.11 2143.74C2363.11 2143.74 2436.35 2205.1 1977.82 2212.47C1519.28 2219.83 1591.06 2151.1 1578.26 2159.53L1578.33 2159.46Z" fill="#F7F3C1"/>
<path d="M1904.91 2101.68C1904.91 2101.68 1890.65 2171.67 1974.37 2171.14C2058.09 2170.61 2040.11 2101.68 2040.11 2101.68H1904.91Z" fill="#E1AA61"/>
<path d="M1578.33 2159.46L665.773 5028.02C665.773 5028.02 670.284 4919.89 1954.47 4910.86C3238.65 4901.84 3288.27 5028.02 3288.27 5028.02L2363.11 2143.74C2363.11 2143.74 2427.79 2202.65 1977.82 2212.47C1527.84 2222.28 1578.26 2159.53 1578.26 2159.53L1578.33 2159.46Z" fill="#73681C"/>
<path d="M665.773 5027.95C665.773 5027.95 831.022 4889.77 1954.47 4910.8C3077.91 4931.83 3298.75 4972.36 3288.27 5027.95C3277.79 5083.55 2535.79 5152.6 2005.55 5158.64C1475.3 5164.68 583.115 5112.07 665.773 5027.95Z" fill="#F6F1AF"/>
<path d="M1288.76 4218.62L1249.88 5025.43L1551.19 5098.34H1755.32L1774.75 4160.31C1774.75 4160.31 1608.78 4207.61 1560.88 4218.62C1468.47 4239.85 1288.69 4218.62 1288.69 4218.62H1288.76Z" fill="#E6CB9E"/>
<path d="M2625.35 4179.68L1774.82 4160.24L1755.38 5098.27L2163.63 5064.24C2163.63 5064.24 2238.99 5018.07 2290.01 5049.65C2341.02 5081.22 2649.69 5039.89 2649.69 5039.89L2625.41 4179.61L2625.35 4179.68Z" fill="#E4DDD3"/>
<path d="M1209.09 3770.3C1205.9 3745.56 1121.19 3295.25 1806.86 3225.06C1806.86 3225.06 2348.98 3277.34 2275.74 3710.07C2202.51 4142.79 1973.9 4180.54 1836.18 4191.35C1698.47 4202.17 1261.82 4180.54 1209.09 3770.3Z" fill="#ECE7E4"/>
<path d="M2177.03 4072.67L1912.21 4193.28C1912.21 4193.28 2252.46 4082.49 2220.28 3682.47C2188.11 3282.44 1803.08 3229.84 1803.08 3229.84C1803.08 3229.84 2033.47 3224.73 2194.21 3387.92C2354.95 3551.12 2337.77 3898.4 2177.03 4072.67Z" fill="#E1D4C6"/>
</g>
<defs>
<clipPath id="clip0_18_36">
<rect width="3949" height="5585" fill="white"/>
</clipPath>
</defs>
</svg>
