<svg width="48" height="53" viewBox="0 0 48 53" fill="none" xmlns="http://www.w3.org/2000/svg">
<path d="M21.6769 50.1442C21.6769 50.1442 3.17983 34.9233 11.1447 21.288C15.2696 14.2264 19.8132 14.6622 23.2357 16.7246C26.8088 18.8771 29.0251 22.7294 29.2091 26.9295C29.4592 32.6349 28.6173 42.2362 21.6766 50.1448L21.6769 50.1442Z" fill="#47403A"/>
<path d="M17.721 17.0919C17.721 17.0919 12.9214 10.1872 19.8626 7.43525C26.8038 4.68328 31.4776 21.3827 34.9081 15.5371C38.3386 9.69144 31.299 1.13412 31.299 1.13412" stroke="#47403A" stroke-width="2.26113" stroke-miterlimit="10" stroke-linecap="round"/>
<path d="M20.671 37.1246C20.7341 36.7749 20.8116 36.2965 20.8726 35.7448C21.0041 34.5553 21.0537 33.1226 20.8058 31.9206C20.5538 30.6992 20.072 30.0278 19.3972 29.7799C18.6466 29.5042 17.1601 29.549 14.4278 31.0415C11.715 32.5235 10.6257 33.8326 10.2632 34.796C9.93138 35.6783 10.1228 36.5149 10.6927 37.3692C11.2815 38.2516 12.2033 39.027 13.0395 39.6029C13.3988 39.8502 13.7271 40.049 13.98 40.1945L20.671 37.1246Z" fill="#FFA6A6" stroke="#A09289" stroke-width="2.52532"/>
<path d="M27.5299 38.7705C27.8171 38.5654 28.1978 38.2864 28.6273 37.946C29.5957 37.1786 30.7803 36.1348 31.7329 34.9846C32.7122 33.8021 33.3045 32.6757 33.3665 31.7291C33.418 30.9424 33.1195 30.0202 31.596 29.0858C30.102 28.1696 29.0485 28.2899 28.2184 28.7515C27.2677 29.2801 26.3971 30.3805 25.6498 31.8103C24.9184 33.2097 24.3869 34.7651 24.0371 35.9921C23.9207 36.4006 23.828 36.7688 23.7532 37.0762L27.5299 38.7705Z" fill="#FFA6A6" stroke="#A09289" stroke-width="2.52532"/>
</svg>
