<svg width="325" height="135" viewBox="0 0 325 135" fill="none" xmlns="http://www.w3.org/2000/svg">
<path d="M323.282 125.77C320.845 90.4063 312.924 23.311 300.631 10.2694C285.265 -6.03258 282.526 100.8 261.245 124.218C239.963 147.636 227.196 18.5651 209.366 8.34401C191.535 -1.87707 191.894 115.291 181.951 113.738C172.009 112.185 174.583 18.6726 158.149 2.17652C141.715 -14.3195 137.827 128.487 129.856 132.951C123.48 136.522 119.859 126.676 118.845 121.307C118.128 83.6354 113.387 8.29264 100.159 8.29264C83.624 8.29264 79.5205 127.123 72.4431 124.218C58.6607 118.56 49.1224 34.8515 48.0725 24.155C47.0227 13.4585 37.4349 -11.3227 36.8657 11.2885C36.464 27.2432 45.0033 174.797 26.8933 105.575C12.4053 50.1975 -0.307694 16.5428 0.934639 12.906" stroke="#FFEE00" stroke-width="1.70072"/>
<path d="M116.968 62.5558C116.968 62.5558 101.108 49.5047 107.937 37.8132C111.474 31.7583 115.37 32.132 118.305 33.9004C121.368 35.746 123.269 39.0492 123.426 42.6505C123.641 47.5426 122.919 55.7751 116.968 62.5563L116.968 62.5558Z" fill="#47403A"/>
<path d="M113.576 34.2153C113.576 34.2153 109.461 28.2949 115.412 25.9353C121.364 23.5756 125.371 37.8944 128.313 32.8821C131.254 27.8698 125.218 20.5324 125.218 20.5324" stroke="#47403A" stroke-width="1.4115" stroke-miterlimit="10" stroke-linecap="round"/>
<path d="M116.342 51.5664C116.349 51.517 116.356 51.4635 116.363 51.4059C116.405 51.0522 116.455 50.5508 116.485 49.9665C116.547 48.7864 116.528 47.313 116.236 46.0311C115.937 44.7233 115.401 43.8071 114.586 43.4349C113.779 43.0668 112.401 43.0964 110.076 44.4336C107.764 45.7632 106.789 47.0377 106.474 48.1075C106.164 49.1617 106.444 50.1959 107.052 51.1748C107.664 52.159 108.567 53.0121 109.343 53.6305C109.726 53.9363 110.071 54.1773 110.317 54.3411C110.338 54.3549 110.358 54.368 110.377 54.3807L116.342 51.5664Z" fill="#FFA6A6" stroke="#A09289" stroke-width="1.5"/>
<path d="M122.093 53.1365C122.351 52.9544 122.714 52.689 123.131 52.3585C123.971 51.6933 125.007 50.7816 125.845 49.7701C126.699 48.7393 127.262 47.7047 127.322 46.7854C127.376 45.961 127.033 45.0648 125.647 44.2144C124.278 43.3749 123.248 43.4603 122.419 43.9213C121.518 44.4223 120.733 45.4358 120.081 46.6821C119.439 47.9102 118.977 49.2678 118.673 50.3312C118.535 50.8154 118.434 51.2338 118.362 51.5439L122.022 53.1866C122.045 53.1707 122.068 53.154 122.093 53.1365Z" fill="#FFA6A6" stroke="#A09289" stroke-width="1.5"/>
<path d="M276.493 82.2268C276.493 82.2268 286.21 100.322 275.453 108.545C269.883 112.804 266.42 110.979 264.377 108.229C262.243 105.359 261.739 101.581 262.961 98.1897C264.619 93.5825 268.413 86.2404 276.493 82.2264L276.493 82.2268Z" fill="#47403A"/>
<path d="M268.87 109.731C268.87 109.731 270.43 116.77 264.028 116.694C257.626 116.617 259.355 101.849 254.731 105.369C250.107 108.889 252.905 117.969 252.905 117.969" stroke="#47403A" stroke-width="1.4115" stroke-miterlimit="10" stroke-linecap="round"/>
<path d="M272.868 92.5589C272.847 92.5914 272.823 92.6254 272.799 92.6626C272.629 92.9274 272.397 93.3058 272.151 93.7558C271.653 94.6678 271.128 95.8239 270.924 96.9089C270.717 98.0056 270.867 98.8403 271.445 99.3702C272.059 99.9325 273.378 100.37 276.058 100.072C278.725 99.776 280.112 99.0776 280.793 98.3447C281.44 97.6495 281.56 96.8011 281.372 95.8695C281.181 94.9182 280.677 93.9621 280.192 93.2185C279.953 92.8528 279.727 92.5513 279.561 92.3418C279.546 92.3231 279.532 92.3052 279.518 92.288L272.868 92.5589Z" fill="#FFA6A6" stroke="#A09289" stroke-width="1.5"/>
<path d="M268.174 88.9963C267.866 89.0669 267.429 89.1743 266.918 89.3218C265.889 89.6185 264.584 90.0684 263.425 90.6862C262.244 91.3156 261.33 92.0591 260.925 92.8867C260.562 93.6289 260.539 94.588 261.499 95.9012C262.447 97.1975 263.432 97.5095 264.374 97.3978C265.398 97.2764 266.509 96.6369 267.584 95.7312C268.645 94.8387 269.588 93.7585 270.272 92.8898C270.584 92.4943 270.837 92.1458 271.021 91.8861L268.259 88.977C268.232 88.983 268.203 88.9895 268.174 88.9963Z" fill="#FFA6A6" stroke="#A09289" stroke-width="1.5"/>
</svg>
